PathFileType	4	(X/Y/Z)	C:\Users\Biomechanik\SynologyDrive\AlexP\Athlete_03\Athlete_3_22_07_06\sq_75_EMG\marker_experimental.trc
DataRate	CameraRate	NumFrames	NumMarkers	Units	OrigDataRate	OrigDataStartFrame	OrigNumFrames
200.000000	200.000000	4	58	mm	200.000000	491	1310
Frame#	Time	BL			BR			Athlete_3_RUA2_Opt:GLAB			Athlete_3_RUA2_Opt:RFHD			Athlete_3_RUA2_Opt:LFHD			Athlete_3_RUA2_Opt:C7			Athlete_3_RUA2_Opt:T6			Athlete_3_RUA2_Opt:SPINMOL			Athlete_3_RUA2_Opt:SPINM2			Athlete_3_RUA2_Opt:SPINM3			Athlete_3_RUA2_Opt:T12			Athlete_3_RUA2_Opt:BELTOL			Athlete_3_RUA2_Opt:BELT2			Athlete_3_RUA2_Opt:BELT3			Athlete_3_RUA2_Opt:SACROL			Athlete_3_RUA2_Opt:SACR2			Athlete_3_RUA2_Opt:SACR3			Athlete_3_RUA2_Opt:LTHOL			Athlete_3_RUA2_Opt:LTH2			Athlete_3_RUA2_Opt:LTH3			Athlete_3_RUA2_Opt:LSHAOL			Athlete_3_RUA2_Opt:LSHA2			Athlete_3_RUA2_Opt:LSHA3			Athlete_3_RUA2_Opt:LHEE			Athlete_3_RUA2_Opt:LTOE			Athlete_3_RUA2_Opt:LM5			Athlete_3_RUA2_Opt:RTHOL			Athlete_3_RUA2_Opt:RTH2			Athlete_3_RUA2_Opt:RTH3			Athlete_3_RUA2_Opt:RSHAOL			Athlete_3_RUA2_Opt:RSHA2			Athlete_3_RUA2_Opt:RSHA3			Athlete_3_RUA2_Opt:RHEE			Athlete_3_RUA2_Opt:RTOE			Athlete_3_RUA2_Opt:RM5			Athlete_3_RUA2_Opt:STRN			Athlete_3_RUA2_Opt:XIPH			Athlete_3_RUA2_Opt:LACR			Athlete_3_RUA2_Opt:LUAOL			Athlete_3_RUA2_Opt:LUA2			Athlete_3_RUA2_Opt:LUA3			Athlete_3_RUA2_Opt:LLAOL			Athlete_3_RUA2_Opt:LLA2			Athlete_3_RUA2_Opt:LLA3			Athlete_3_RUA2_Opt:LWRU			Athlete_3_RUA2_Opt:RACR			Athlete_3_RUA2_Opt:RUAOL			Athlete_3_RUA2_Opt:RUA3			Athlete_3_RUA2_Opt:RLAOL			Athlete_3_RUA2_Opt:RLA2			Athlete_3_RUA2_Opt:RLA3			Athlete_3_RUA2_Opt:RWRU			USERMO0			USERMO1			USERMO2			USERMO3			USERMO4			USERMO5			
		X1	Y1	Z1	X2	Y2	Z2	X3	Y3	Z3	X4	Y4	Z4	X5	Y5	Z5	X6	Y6	Z6	X7	Y7	Z7	X8	Y8	Z8	X9	Y9	Z9	X10	Y10	Z10	X11	Y11	Z11	X12	Y12	Z12	X13	Y13	Z13	X14	Y14	Z14	X15	Y15	Z15	X16	Y16	Z16	X17	Y17	Z17	X18	Y18	Z18	X19	Y19	Z19	X20	Y20	Z20	X21	Y21	Z21	X22	Y22	Z22	X23	Y23	Z23	X24	Y24	Z24	X25	Y25	Z25	X26	Y26	Z26	X27	Y27	Z27	X28	Y28	Z28	X29	Y29	Z29	X30	Y30	Z30	X31	Y31	Z31	X32	Y32	Z32	X33	Y33	Z33	X34	Y34	Z34	X35	Y35	Z35	X36	Y36	Z36	X37	Y37	Z37	X38	Y38	Z38	X39	Y39	Z39	X40	Y40	Z40	X41	Y41	Z41	X42	Y42	Z42	X43	Y43	Z43	X44	Y44	Z44	X45	Y45	Z45	X46	Y46	Z46	X47	Y47	Z47	X48	Y48	Z48	X49	Y49	Z49	X50	Y50	Z50	X51	Y51	Z51	X52	Y52	Z52	X53	Y53	Z53	X54	Y54	Z54	X55	Y55	Z55	X56	Y56	Z56	X57	Y57	Z57	X58	Y58	Z58	

492	2.455	128.7011566162109	1258.322387695313	-2233.400390625	199.8423461914062	1286.265625	-12.58263587951652	536.4378662109375	1415.321533203125	-1116.375122070312	472.8752746582031	1429.020751953125	-1043.142578125	477.1604309082031	1430.321411132812	-1196.471923828125	268.8284606933594	1364.998168945312	-1119.757934570312	104.0703201293945	1238.677612304688	-1125.582641601562	81.47463989257812	1208.924560546875	-1130.553588867188	46.70761871337891	1156.082397460938	-1081.534057617188	55.52617645263672	1152.713012695312	-1130.645629882812	37.90171813964844	1097.886108398438	-1131.19287109375	5.698619365692139	1062.77734375	-1129.850952148438	-7.079305171966553	1002.134033203125	-1079.54150390625	-11.37309169769287	1002.956970214844	-1129.522705078125	-17.3832950592041	927.5688476562501	-1158.60302734375	-9.129849433898926	936.4973754882814	-1108.8115234375	-41.1477165222168	879.4724731445314	-1119.80712890625	105.4915924072266	722.5338134765626	-1388.585571289062	65.13288116455078	653.4711914062501	-1383.679931640625	111.1950531005859	662.2574462890626	-1402.6728515625	86.42714691162109	325.8308715820314	-1496.65966796875	56.80098724365234	252.6994628906251	-1502.278564453125	101.7693481445312	268.5405578613282	-1516.291870117188	69.46193695068359	34.99087524414072	-1482.65869140625	268.0007019042969	49.91691589355478	-1546.666015625	197.7540893554688	23.17310333251963	-1634.730834960938	85.06685638427734	692.315185546875	-877.9348754882812	125.0300521850586	632.3053588867188	-843.573486328125	79.45420074462891	631.6820678710938	-864.8299560546875	55.48964691162109	315.3164978027344	-776.09375	102.0068511962891	261.0728149414063	-741.4345703125	58.66569519042969	254.7068634033204	-765.9143676757812	63.20344161987305	35.26382446289067	-789.5554809570312	258.217041015625	46.22737121582036	-711.4888916015625	189.4967651367188	37.06407546997074	-627.4008178710938	351.2657775878906	1216.021240234375	-1130.944580078125	320.6518859863281	1064.884765625	-1124.552734375	228.9498138427734	1312.295043945312	-1312.27587890625	93.81835174560547	1227.990234375	-1334.630249023438	57.98554992675781	1186.954345703125	-1297.26806640625	59.45747756958008	1184.078735351562	-1348.15966796875	40.7823371887207	1150.83154296875	-1424.475341796875	84.49203491210938	1165.749633789062	-1470.294921875	83.02764892578125	1198.33935546875	-1432.302124023438	131.6666107177734	1240.184326171875	-1484.720336914062	246.0927886962891	1314.3193359375	-943.0649414062499	116.3608627319336	1216.696533203125	-898.6015624999999	60.89578628540039	1192.204833984375	-895.3264160156249	67.90739440917969	1183.206665039062	-819.3077392578124	117.7904510498047	1224.220458984375	-823.3087158203124	107.4371948242188	1207.447509765625	-775.8510742187499	144.0403442382812	1244.0068359375	-753.2101440429686	0.0403079017996788	0.009197389706969265	-0.05581729859113693	0.01055879984050989	0.05907129868865013	-0.05575570091605186	0.02324599958956242	0.04044409841299057	-0.03012439981102943	0.0890389010310173	0.1914110034704209	-0.8071630001068115	0.4058310091495514	2.8747398853302	-0.3156259953975676	2.929110050201416	0	0	
493	2.46	128.6508941650391	1258.338989257813	-2233.392822265625	199.8762817382812	1286.4970703125	-12.57998847961418	536.6050415039062	1415.062255859375	-1116.486206054688	473.0794067382812	1428.84619140625	-1043.235473632812	477.3150939941406	1430.092041015625	-1196.568725585938	268.855224609375	1365.0478515625	-1119.80859375	104.0318908691406	1238.678588867188	-1125.5810546875	81.44075012207031	1208.92333984375	-1130.540405273438	46.70674133300781	1156.076293945312	-1081.502319335938	55.48538589477539	1152.7138671875	-1130.619873046875	37.87135696411133	1097.896850585938	-1131.157958984375	5.700216770172119	1062.785522460938	-1129.818725585938	-7.055347442626953	1002.127258300781	-1079.5205078125	-11.36263179779053	1002.960632324219	-1129.49853515625	-17.37785720825195	927.5526123046876	-1158.587158203125	-9.119511604309082	936.4811401367189	-1108.797729492188	-41.1152229309082	879.4439697265626	-1119.794067382812	105.4400329589844	722.5383300781251	-1388.611938476562	65.09452056884766	653.4696655273439	-1383.687377929688	111.1419830322266	662.2626953125001	-1402.703369140625	86.40616607666016	325.8293762207032	-1496.672729492188	56.78538131713867	252.6940917968751	-1502.281616210938	101.746955871582	268.5396423339845	-1516.305541992188	69.46465301513672	34.99271392822275	-1482.657348632812	267.9979858398438	49.91895675659189	-1546.672485351562	197.7510986328125	23.17511177062998	-1634.740234375	85.23838806152344	692.3148803710938	-877.964111328125	125.2184753417969	632.3009643554688	-843.6256103515625	79.62700653076172	631.6815185546875	-864.8501586914062	55.61805725097656	315.3351440429688	-776.086181640625	102.1334457397461	261.0717773437501	-741.4524536132812	58.76217651367188	254.7422485351563	-765.890625	63.21706008911133	35.2692260742188	-789.5678100585938	258.2265625	46.21646499633793	-711.498291015625	189.5105133056641	37.07990264892582	-627.4059448242188	351.3426513671875	1216.113647460938	-1130.968383789062	320.7483520507812	1064.988525390625	-1124.560791015625	228.9427032470703	1312.36767578125	-1312.285034179688	93.83306121826172	1228.013427734375	-1334.647338867188	58.00867462158203	1186.961181640625	-1297.285034179688	59.502685546875	1184.08447265625	-1348.156372070312	40.8233528137207	1150.840454101562	-1424.477661132812	84.52555847167969	1165.785522460938	-1470.301635742188	83.05239868164062	1198.362060546875	-1432.306274414062	131.6709136962891	1240.235595703125	-1484.718994140625	246.1181488037109	1314.443603515625	-943.0964965820311	116.4007720947266	1216.78466796875	-898.5963745117186	60.92623519897461	1192.306396484375	-895.3074340820311	67.95443725585938	1183.295166015625	-819.2956542968749	117.8297805786133	1224.321411132812	-823.2988891601561	107.4827499389648	1207.551513671875	-775.8397827148436	144.0768127441406	1244.118530273438	-753.1992797851561	0.04031959921121597	0.009110550396144394	-0.05546509847044945	0.01059119962155819	0.0606054998934269	-0.05580919981002807	0.02317529916763306	0.03963939845561981	-0.03018840029835701	0.08718450367450714	0.1885910034179688	-0.8050510287284851	0.4056420028209686	2.873379945755005	-0.3177889883518217	2.929199934005737	0	0	
494	2.465	128.6015472412109	1258.362915039063	-2233.385498046875	199.9131469726562	1286.735107421875	-12.57756137847893	536.769775390625	1414.802734375	-1116.592529296875	473.2810974121094	1428.67138671875	-1043.323364257812	477.4667663574219	1429.866088867188	-1196.660522460938	268.88134765625	1365.103637695312	-1119.85595703125	103.9906768798828	1238.681030273438	-1125.57861328125	81.40489959716797	1208.923461914062	-1130.526733398438	46.70402145385742	1156.07080078125	-1081.470581054688	55.44355392456055	1152.715576171875	-1130.59423828125	37.84077835083008	1097.907104492188	-1131.123046875	5.702456474304199	1062.792846679688	-1129.786499023438	-7.030881404876709	1002.12060546875	-1079.498657226562	-11.35073089599609	1002.963500976563	-1129.4736328125	-17.36765289306641	927.5378417968751	-1158.56884765625	-9.105778694152832	936.4672851562501	-1108.782104492188	-41.08159255981445	879.4190673828126	-1119.778076171875	105.3970260620117	722.5417480468751	-1388.631469726562	65.06230163574219	653.4683837890626	-1383.689697265625	111.0979156494141	662.2666015625001	-1402.725219726562	86.38756561279297	325.8276367187501	-1496.680541992188	56.77179336547852	252.6885528564454	-1502.2802734375	101.7269439697266	268.5383911132814	-1516.314208984375	69.46749877929688	34.99420928955087	-1482.655517578125	267.9956359863281	49.9205207824708	-1546.677978515625	197.7486419677734	23.17661094665537	-1634.748413085938	85.402099609375	692.3162231445312	-877.9873046875	125.397575378418	632.2981567382812	-843.66943359375	79.79132080078125	631.683349609375	-864.8633422851562	55.73923110961914	315.3532104492188	-776.0748901367188	102.2526168823242	261.0701599121094	-741.4666137695312	58.8533935546875	254.7747192382813	-765.8668212890625	63.2298583984375	35.2742424011231	-789.5792236328125	258.2354736328125	46.20619583129887	-711.5069580078125	189.5237731933594	37.09505844116214	-627.4105224609375	351.4158020019531	1216.210083007812	-1130.98876953125	320.8429870605469	1065.096557617188	-1124.56494140625	228.9364013671875	1312.444458007812	-1312.292236328125	93.84470367431641	1228.044677734375	-1334.66064453125	58.03047180175781	1186.973999023438	-1297.297119140625	59.54734420776367	1184.098510742188	-1348.146606445312	40.86032485961914	1150.858520507812	-1424.475952148438	84.5546875	1165.828857421875	-1470.306030273438	83.07329559326172	1198.393676757812	-1432.308227539062	131.6727752685547	1240.293334960938	-1484.716918945312	246.1408843994141	1314.5712890625	-943.1263427734374	116.4330825805664	1216.88134765625	-898.5912475585936	60.94775390625	1192.420654296875	-895.2864379882811	67.99437713623047	1183.394897460938	-819.2828979492186	117.8638000488281	1224.43115234375	-823.2888183593749	107.5220336914062	1207.664306640625	-775.8281860351561	144.1096801757812	1244.238525390625	-753.1884155273436	0.04047369956970215	0.00904421973973513	-0.05529540032148361	0.01059670001268387	0.06222910061478615	-0.05607629939913749	0.02307949960231781	0.03884239867329597	-0.03003429993987083	0.08550719916820526	0.1863259971141816	-0.8022379875183105	0.4056020081043243	2.871989965438843	-0.3204909861087797	2.929250001907349	0	0	
495	2.47	128.5535430908203	1258.393676757813	-2233.37841796875	199.9534301757812	1286.9794921875	-12.57541656494133	536.9315185546875	1414.542602539062	-1116.693969726562	473.4801025390625	1428.495971679688	-1043.40625	477.6149291992188	1429.643188476562	-1196.7470703125	268.9065856933594	1365.164428710938	-1119.899658203125	103.9463882446289	1238.684936523438	-1125.574584960938	81.36669158935547	1208.924682617188	-1130.511840820312	46.69907760620117	1156.065673828125	-1081.437866210938	55.4001579284668	1152.717895507812	-1130.568237304688	37.80940246582031	1097.916748046875	-1131.087646484375	5.704836368560791	1062.799072265625	-1129.753540039062	-7.006363391876221	1002.113830566406	-1079.475341796875	-11.33791637420654	1002.965393066406	-1129.447387695312	-17.35324478149414	927.5255737304689	-1158.547973632812	-9.088897705078125	936.4563598632814	-1108.764282226562	-41.04782867431641	879.3988647460939	-1119.758911132812	105.3631210327148	722.5440673828126	-1388.643798828125	65.03646850585938	653.4671630859376	-1383.686401367188	111.0639114379883	662.2689208984376	-1402.737548828125	86.37140655517578	325.825408935547	-1496.682739257812	56.76029205322266	252.6827392578126	-1502.274169921875	101.7093048095703	268.5366516113282	-1516.317260742188	69.47056579589844	34.9953498840333	-1482.652954101562	267.9936828613281	49.92156982421884	-1546.6826171875	197.7467651367188	23.17733192443858	-1634.755004882812	85.55406188964844	692.3189697265625	-878.0042114257812	125.5628662109375	632.2967529296875	-843.7041625976562	79.94326782226562	631.6871337890625	-864.8699951171875	55.85076141357422	315.3703613281251	-776.0610961914062	102.3617401123047	261.0680541992188	-741.4771118164062	58.93742370605469	254.8033294677735	-765.8441162109375	63.24164962768555	35.2787590026856	-789.5895385742188	258.2436218261719	46.19679641723637	-711.5147705078125	189.5362396240234	37.10923004150394	-627.4144897460938	351.4849853515625	1216.309448242188	-1131.005126953125	320.9354858398438	1065.207885742188	-1124.564331054688	228.9308471679688	1312.524291992188	-1312.297485351562	93.8531494140625	1228.083129882812	-1334.670288085938	58.05059814453125	1186.992431640625	-1297.304565429688	59.59035110473633	1184.120239257812	-1348.13134765625	40.89272308349609	1150.885131835938	-1424.470458984375	84.57891845703125	1165.87890625	-1470.308349609375	83.08973693847656	1198.433837890625	-1432.307861328125	131.6719207763672	1240.357177734375	-1484.714111328125	246.1608734130859	1314.701416015625	-943.1539916992186	116.4584579467773	1216.985107421875	-898.5853881835936	60.96575927734375	1192.544189453125	-895.2618408203124	68.02792358398438	1183.504272460938	-819.2687988281249	117.8928680419922	1224.54833984375	-823.2781982421874	107.5554656982422	1207.784790039062	-775.8157348632811	144.13916015625	1244.3662109375	-753.1774902343749	0.04079800099134445	0.009001780301332477	-0.05526769906282425	0.01056469976902008	0.06402959674596786	-0.05653519928455352	0.02295169979333878	0.03811119869351387	-0.02965589985251426	0.0842863991856575	0.1846819967031479	-0.7988190054893494	0.4056429862976074	2.870599985122681	-0.3236199915409086	2.929280042648315	0	0	
